<svg xmlns="http://www.w3.org/2000/svg"><symbol id="icon-back" viewBox="0, 0, 400, 400"><path d="M317.075 289.275l1.336.833 39.076 24.365 7.007 4.37-6.733 4.781-39.075 27.752-1.431 1.016H30.111l12.982-9.878 28.023-21.319-28.093-22.097-12.488-9.823h185.487v11H62.312l21.193 16.669 5.588 4.396-5.658 4.305-20.699 15.747h251.011l30.912-21.954-30.732-19.163h-30.424v-11h33.572zM154.898 105.953a5.5 5.5 0 0 1 5.398 4.444l.463 2.37 1.02 5.213.933 4.77 3.212 1.422 4.935 2.184 3.973-2.292 5.929-3.42 2.282-1.317a5.5 5.5 0 0 1 6.592.831l1.931 1.887 3.48 3.4 5.016 4.902 1.931 1.887a5.499 5.499 0 0 1 1.038 6.465l-1.228 2.37-2.214 4.27-3.193 6.157-.053.102 1.401 3.396 1.365 3.309.181.053a51043.844 51043.844 0 0 1 11.989 3.475l2.724.79a5.501 5.501 0 0 1 3.967 5.444l-.088 2.984-.193 6.565-.193 6.565-.088 2.984a5.499 5.499 0 0 1-4.141 5.168l-2.413.615-4.35 1.107-6.098 1.552-1.725 3.881-1.68 3.781 2.699 4.748 2.8 4.923 1.272 2.238a5.5 5.5 0 0 1-1.014 6.726l-2.194 2.063-4.827 4.537-4.827 4.538-2.194 2.062a5.5 5.5 0 0 1-6.464.787l-2.106-1.185-4.634-2.607-4.434-2.494-3.444 1.394-3.478 1.408-1.616 5.229-1.642 5.31-.746 2.413a5.498 5.498 0 0 1-5.092 3.874l-2.984.087-6.565.194-6.565.193-2.984.087a5.498 5.498 0 0 1-5.492-4.142l-.659-2.589-1.186-4.666-1.658-6.521-3.336-1.241-3.798-1.414-5.165 2.582-5.02 2.51-2.282 1.141a5.5 5.5 0 0 1-6.429-1.112l-2.062-2.15-3.717-3.874-5.358-5.587-2.063-2.15a5.501 5.501 0 0 1-.764-6.609l1.273-2.15 2.8-4.731 2.58-4.359-1.549-3.253-1.717-3.607-.006-.002-4.428-1.186c-2.129-.569-4.257-1.14-6.385-1.71l-2.457-.658a5.5 5.5 0 0 1-4.077-5.313v-18.255a5.501 5.501 0 0 1 3.679-5.19l2.501-.877 5.503-1.931 5.503-1.931.092-.032 1.04-2.733 1.729-4.536-.109-.239-2.317-5.117-2.317-5.117-1.053-2.326a5.502 5.502 0 0 1 1.121-6.158l1.931-1.931 4.248-4.247 4.248-4.248 1.931-1.931a5.5 5.5 0 0 1 6.423-.992l2.282 1.185 4.112 2.135 5.928 3.078.317.165c2.601-.783 1.28-.38 3.964-1.21.294-.092.579-.182.856-.271 1.497-.484.708-.223 2.366-.785l.009-.033 1.545-5.503 1.544-5.503.703-2.502a5.5 5.5 0 0 1 5.295-4.013h18.817zm-4.529 11h-10.12l-1.12 3.99-1.544 5.503-.702 2.502-.027-.008c-.036.636.016.137-.555 1.399a5.552 5.552 0 0 1-1.349 1.541 6.897 6.897 0 0 1-1.264.798c-.469.236-1.015.465-1.692.72-1.02.386-2.378.845-4.03 1.373a300.714 300.714 0 0 1-6.661 2.027l-.549.16a5.498 5.498 0 0 1-4.061-.403l-2.281-1.185a5307.1 5307.1 0 0 1-4.112-2.135l-4.636-2.406-2.561 2.561-.769.769-3.488 3.488 1.801 3.975 2.317 5.117 1.053 2.326a5.498 5.498 0 0 1 .129 4.227l-2.246 5.897-2.247 5.898a5.5 5.5 0 0 1-3.319 3.232l-2.501.878-5.503 1.931-4.325 1.517v10.136l2.808.752 6.385 1.71 2.457.659a5.496 5.496 0 0 1 3.543 2.948l2.809 5.897 2.808 5.898a5.5 5.5 0 0 1-.233 5.166l-1.272 2.15-2.8 4.731-1.945 3.287 2.888 3.01 4.616 4.813 3.678-1.839 3.151-1.576 4.151-2.075a5.503 5.503 0 0 1 4.378-.236l6.038 2.247 6.038 2.247a5.5 5.5 0 0 1 3.413 3.799l.658 2.589 1.448 5.696 1.02 4.014 3.955-.117 6.806-.2.928-3.005 1.939-6.27.746-2.414a5.498 5.498 0 0 1 3.191-3.474l5.119-2.072 6.676-2.702a5.498 5.498 0 0 1 4.76.304l2.107 1.185 4.634 2.607 3.22 1.811 4.078-3.834 3.868-3.635-1.933-3.4-2.8-4.924-1.272-2.238a5.495 5.495 0 0 1-.245-4.952l.877-1.975 1.931-4.344 1.931-4.345.878-1.974a5.5 5.5 0 0 1 3.669-3.097l2.413-.614 5.31-1.352 3.705-.943.158-5.403.156-5.291-4.627-1.342-5.995-1.737-2.724-.79a5.497 5.497 0 0 1-3.553-3.186l-2.375-5.757-2.375-5.757a5.505 5.505 0 0 1 .202-4.629l1.229-2.37 2.703-5.213 2.056-3.966-3.264-3.19-3.197-3.125-3.691 2.13-5.021 2.896-2.281 1.317a5.501 5.501 0 0 1-4.975.265l-2.082-.922-3.751-1.66-5.408-2.394-2.082-.922a5.502 5.502 0 0 1-3.171-3.973l-.464-2.37-1.02-5.213-.614-3.139zM126.21 128.04c-.032.589-.08.333.074.777l-.074-.777z"/><path d="M145.489 143.464c19.004 0 34.41 15.406 34.41 34.41 0 19.004-15.406 34.41-34.41 34.41-19.004 0-34.409-15.406-34.409-34.41 0-19.004 15.405-34.41 34.409-34.41zm0 11c-12.928 0-23.409 10.481-23.409 23.41s10.481 23.41 23.409 23.41c12.929 0 23.41-10.481 23.41-23.41s-10.481-23.41-23.41-23.41zM256.852 58.34c2.513.043 4.242 1.244 5.366 3.437l1.073 2.659 2.36 5.85 2.359 5.85.081.2 2.514.747 2.659.79.299-.189 5.308-3.362 5.307-3.362 2.412-1.528a5.5 5.5 0 0 1 6.852.777l2.278 2.301 5.01 5.061 5.011 5.062 2.278 2.301a5.5 5.5 0 0 1 .506 7.15l-1.513 2.035-3.326 4.475-3.28 4.413.898 3.545 1.397 5.515.11.062 3.91 2.195 5.636 3.164 2.17 1.218a5.499 5.499 0 0 1 2.58 6.362l-.9 3.029-1.621 5.457-2.338 7.867-.9 3.028a5.501 5.501 0 0 1-5.59 3.925l-2.395-.139-5.268-.305-5.269-.304-.266-.015-3.582 2.907-3.012 2.445.391 5.42.41 5.691.187 2.587a5.5 5.5 0 0 1-4.13 5.725l-3.203.816-7.048 1.793-7.048 1.794-3.204.815a5.499 5.499 0 0 1-6.409-3.158l-.989-2.3-1.78-4.144-2.539-5.908-4.272-1.27-4.323-1.284-.062.04-4.806 3.09-4.806 3.09-2.185 1.405a5.502 5.502 0 0 1-6.832-.705l-2.365-2.327-5.204-5.119-5.204-5.119-2.365-2.327a5.5 5.5 0 0 1-.489-7.292l1.626-2.096 2.929-3.777 4.206-5.422-.881-3.477-1.322-5.222-4.718-2.107-4.916-2.197-2.235-.998a5.5 5.5 0 0 1-3.029-6.588l.978-3.292 1.763-5.932 2.541-8.551.978-3.292a5.5 5.5 0 0 1 5.753-3.912l2.281.2 4.11.361 5.926.52.214.018a9227.26 9227.26 0 0 0 3.804-2.798l3.192-2.347-.025-1.871c-.018-1.399-.033-2.759-.045-4.044-.023-2.491-.03-4.567-.02-6.103a71.96 71.96 0 0 1 .04-2.15c.014-.353.032-.642.061-.912.031-.294.072-.558.154-.887.108-.442.108-.442.576-1.437.432-.723.432-.723 1.628-1.782.62-.301 1.216-.714 1.907-.826l-.005-.022 3.234-.758 7.116-1.669 7.116-1.668 3.234-.758.99-.14zm-3.071 11.926l-5.758 1.35-6.225 1.459c.011 3.112.002 1.686.022 4.278a1138.847 1138.847 0 0 0 .092 7.334l.016.983.006.353a5.5 5.5 0 0 1-2.241 4.525l-5.476 4.028-5.477 4.028a5.5 5.5 0 0 1-3.739 1.048l-2.281-.2a5238.7 5238.7 0 0 0-4.111-.361l-3.733-.328-1.851 6.229-1.756 5.911 2.749 1.229 4.917 2.196 2.234.998a5.505 5.505 0 0 1 3.089 3.672l.549 2.169.99 3.909 1.428 5.636.549 2.17a5.499 5.499 0 0 1-.986 4.721l-1.626 2.096-3.577 4.611-2.206 2.845 4.084 4.017 4.435 4.363 2.424-1.558 5.676-3.65 2.185-1.404a5.502 5.502 0 0 1 4.541-.646l2.106.626 4.635 1.377 4.635 1.377 2.106.626a5.501 5.501 0 0 1 3.487 3.101l.988 2.3 1.781 4.144 1.701 3.957 5.697-1.45 5.791-1.474-.266-3.687-.41-5.691-.187-2.587a5.5 5.5 0 0 1 2.02-4.666l5.237-4.252 5.237-4.251a5.5 5.5 0 0 1 3.784-1.221l2.395.138 5.269.305 3.314.192 1.281-4.31 1.986-6.684-3.111-1.746-4.773-2.68-2.17-1.218a5.496 5.496 0 0 1-2.639-3.445l-.549-2.17-.991-3.909-1.427-5.636-.549-2.169a5.494 5.494 0 0 1 .917-4.631l1.512-2.035 3.326-4.475 2.02-2.718-3.057-3.089-5.082-5.133-3.981 2.522-5.308 3.361-2.412 1.528a5.5 5.5 0 0 1-4.51.626l-5.056-1.502-5.056-1.503a5.497 5.497 0 0 1-3.533-3.215l-1.073-2.659-2.36-5.85-1.668-4.135zm-16.506 3.817l-.384.038c.2.012.071.012.384-.038z"/><path d="M257.347 90.007c15.504-.476 28.459 11.706 28.935 27.21.476 15.505-11.706 28.46-27.211 28.936-15.504.476-28.459-11.707-28.935-27.211-.476-15.504 11.707-28.459 27.211-28.935zm.338 10.994c-9.432.29-16.844 8.171-16.554 17.603.29 9.432 8.171 16.844 17.603 16.554 9.432-.29 16.843-8.171 16.553-17.603-.289-9.432-8.17-16.843-17.602-16.553zM265.346 196.418c2.144.304 1.261.022 2.708.628l2.867 1.505 5.165 2.712 7.448 3.909 2.866 1.505a5.5 5.5 0 0 1 2.643 6.663l-.826 2.396-1.818 5.272-1.793 5.197 2.397 3.865 2.529 4.078.124.026 4.39.91 6.329 1.313 2.436.505a5.5 5.5 0 0 1 4.383 5.285l.057 3.159.104 5.692.149 8.206.058 3.158a5.502 5.502 0 0 1-4.142 5.431l-2.325.591-5.114 1.303-5.114 1.302-.259.065-2.535 3.855-2.132 3.241 1.628 4.088 2.494 6.26.959 2.41a5.499 5.499 0 0 1-2.205 6.706l-2.808 1.745-6.176 3.84-6.176 3.84-2.807 1.746a5.5 5.5 0 0 1-7.065-1.074l-1.637-1.893-2.95-3.412-4.206-4.864-4.456.081-4.508.082-.048.057-3.647 4.398-3.647 4.399-1.658 1.999a5.5 5.5 0 0 1-6.726 1.392l-2.958-1.503-6.507-3.306-6.508-3.307-2.958-1.503a5.5 5.5 0 0 1-2.67-6.803l.916-2.49 1.651-4.486 2.37-6.439-2.36-3.805-2.369-3.821-5.134-.583-5.351-.608-2.432-.276a5.5 5.5 0 0 1-4.878-5.365l-.062-3.433-.113-6.187c-.054-2.973-.109-5.946-.162-8.92l-.063-3.433a5.499 5.499 0 0 1 4.301-5.468l2.235-.499 4.917-1.097 4.916-1.097.209-.046 2.781-3.818 2.333-3.203c-1.162-3.503-.575-1.728-1.759-5.325l-.106-.323c-.772-2.36-1.405-4.33-1.857-5.792a68.945 68.945 0 0 1-.609-2.054c-.093-.34-.163-.62-.217-.886a6.101 6.101 0 0 1-.121-.893c-.031-.455-.031-.455.116-1.547.196-.821.196-.821 1.018-2.191.499-.47.94-1.043 1.562-1.356l-.011-.02 2.854-1.7 5.142-3.064 7.415-4.418 2.854-1.701a5.5 5.5 0 0 1 7.055 1.222l1.827 2.211 4.017 4.863 4.018 4.863.137.166 1.314-.023 4.081-.075.229-.271 3.311-3.939 4.775-5.679 1.837-2.185c1.223-1.444 2.309-1.615 4.058-1.959zm1.514 12.425l-3.033 3.607-4.043 4.809-1.838 2.185a5.497 5.497 0 0 1-4.109 1.96l-5.274.096-5.273.096a5.5 5.5 0 0 1-4.341-1.996l-1.826-2.211-3.29-3.983-3.567-4.318-3.945 2.351-6.629 3.949c.942 2.935.506 1.589 1.304 4.039l.104.319a1139.795 1139.795 0 0 0 2.41 7.271l.225.673a5.5 5.5 0 0 1-.768 4.99l-3.474 4.769-4.532 6.22a5.505 5.505 0 0 1-3.248 2.13l-2.235.498-4.916 1.097-2.768.618.093 5.13.137 7.532 2.992.34 5.351.608 2.432.276a5.5 5.5 0 0 1 4.053 2.566l1.18 1.902 2.125 3.427 3.064 4.941 1.18 1.902a5.502 5.502 0 0 1 .487 4.799l-.916 2.489-2.016 5.477-1.244 3.378 5.108 2.595 5.546 2.818 1.84-2.218 4.307-5.194 1.658-1.999a5.5 5.5 0 0 1 4.134-1.988l2.197-.04 4.834-.088 4.834-.088 2.197-.04a5.502 5.502 0 0 1 4.261 1.901l1.637 1.894a57584.249 57584.249 0 0 0 5.767 6.67l4.993-3.104 5.075-3.156-.986-2.475-2.493-6.26-.96-2.41a5.498 5.498 0 0 1 .515-5.058l3.707-5.635 3.707-5.636a5.505 5.505 0 0 1 3.238-2.308l2.325-.591 5.114-1.303c1.073-.272 2.145-.546 3.217-.819a373933.44 373933.44 0 0 1-.208-11.466l-2.524-.524-6.329-1.312-2.437-.505a5.5 5.5 0 0 1-3.557-2.487l-1.179-1.902-2.595-4.184-2.595-4.184-1.18-1.902a5.5 5.5 0 0 1-.525-4.691l.827-2.397 1.818-5.271 1.104-3.202-4.989-2.619-5.255-2.758z"/><path d="M247.93 225.252c13.067.242 22.554 6.656 27.508 18.768 5.14 14.636-2.557 30.667-17.192 35.807-14.636 5.14-30.667-2.557-35.807-17.193-5.14-14.635 2.557-30.666 17.192-35.806 4.546-1.343 1.808-.684 8.299-1.576zm.395 10.995c-3.949.543-2.283.142-5.049.959-8.903 3.128-13.586 12.88-10.459 21.783 3.128 8.904 12.88 13.586 21.783 10.459 8.904-3.127 13.586-12.879 10.459-21.783-2.17-5.842-7.2-10.218-13.415-11.212-1.095-.175-2.213-.137-3.319-.206z"/></symbol><symbol id="icon-design" viewBox="0, 0, 400, 400"><path d="M251.377 37.203c3.781 25.062 4.85 31.439 5.873 38.072h74.867v175.689h-47.766c5.418 35.876 6.528 42.316 7.515 48.717h23.248l47.418 29.567-47.238 33.549H28.149l41.006-31.196-40.582-31.92h85.061c4.485-28.891 5.997-38.879 7.514-48.717H63.96V75.275h84.289l3.07-19.898 1.376-8.922.487-3.157.94-6.095 48.628 1.302 48.627-1.302zM111.066 310.681H60.351l26.781 21.064-26.357 20.052h251.01l30.912-21.954-30.732-19.162h-18.402l3.341 21.659-48.715.156c-2.66-18.039-3.163-20.051-3.441-21.815h-84.866l-3.431 21.766-48.878-.127c3.561-20.226 3.13-19.287 3.493-21.639zm159.12-59.717h-19.808c10.118 63.903 10.32 65.472 10.643 67.52 16.911.579 15.233.076 19.791.074-6.674-45.978-9-57.045-10.626-67.594zm-115.064 0h-19.808c-10.301 65.359-10.211 66.193-10.419 67.543 11.574-.066 19.081-.166 19.372.126 8.009-47.584 9.298-57.791 10.855-67.669zm81.083 0s-66.974-.005-66.91 0c.064.005-7.802 48.758-7.679 48.717.122-.042 82.268 0 82.268 0-3.966-27.701-6.008-38.112-7.679-48.717zm-76.261-137.869h-3.125q-12.158 0-16.284 3.589-4.126 3.589-4.126 14.38v12.695q0 6.348-2.71 9.619-2.71 3.272-9.595 3.272h-5.957v6.982h5.957q6.299 0 9.302 3.857 3.003 3.858 3.003 9.18v9.766q0 10.791 4.126 14.404 4.126 3.613 16.284 3.613h3.125v-7.031h-3.418q-6.836 0-8.911-2.1-2.075-2.099-2.075-9.082v-10.205q0-8.349-3.516-11.547-3.515-3.199-12.988-4.322 9.766-1.318 13.135-4.272 3.369-2.954 3.369-11.548v-13.086q0-6.934 2.075-9.058 2.075-2.124 8.911-2.124h3.418v-6.982zm83.838 0h-3.125v6.982h3.418q6.836 0 8.911 2.124 2.076 2.124 2.075 9.058v13.086q.001 8.594 3.37 11.548 3.369 2.954 13.134 4.272-9.472 1.123-12.988 4.322-3.515 3.198-3.516 11.547v10.205q.001 6.983-2.075 9.082-2.075 2.1-8.911 2.1h-3.418v7.031h3.125q12.158 0 16.284-3.613 4.126-3.613 4.126-14.404v-9.766q0-5.322 3.003-9.18 3.003-3.857 9.302-3.857h5.957v-6.982h-5.957q-6.885 0-9.595-3.272-2.71-3.271-2.71-9.619v-12.695q0-10.791-4.126-14.38-4.126-3.589-16.284-3.589zm-21.338 8.935h-9.277l-38.428 82.178h9.326l38.379-82.178zm-56.366-70.502c.045.031-3.742 23.714-3.663 23.747.079.033 20.207-.099 20.401 0 .194.099 3.623-23.28 3.657-23.201.034.079-20.439-.578-20.395-.546zm36.672-12.801c-3.987 25.162-4.876 30.929-5.761 36.548h11.522l-5.761-36.548zm36.672 12.801c-13.946.367-17.297.463-20.395.546 1.906 10.449 2.657 16.855 3.657 23.201h20.401l-3.663-23.747z"/></symbol><symbol id="icon-front" viewBox="0, 0, 400, 400"><path d="M331.471 46.68c7.667 0 13.881 6.214 13.881 13.88v170.555c0 7.666-6.214 13.881-13.881 13.881H225.673v9.469c15.724 3.532 35.686 10.598 37.307 29.176-.058 1.87-.173 3.802-.883 5.562h58.11l1.457.909 39.075 24.366 7.645 4.766-7.345 5.217-39.075 27.751-1.561 1.108H31.616l14.163-10.775 27.508-20.928-27.585-21.697-13.623-10.717h99.068c-.766-1.749-.793-3.697-.883-5.562 1.738-19.073 22.438-25.739 38.364-29.394l-.001-9.251H61.772c-7.666 0-13.881-6.215-13.881-13.881V60.56c0-7.666 6.215-13.88 13.881-13.88h269.699zM140.099 301.203H66.745l20.057 15.777 6.097 4.795-6.173 4.696-19.518 14.849h249.368l30.17-21.427-29.974-18.69h-63.628c-16.221 11.706-36.986 14.517-56.522 14.733-19.628-.153-40.184-3.145-56.523-14.733zm28.528-32.763c-8.619 2.554-4.877 1.266-11.296 3.656-8.796 3.753-13.186 8.183-13.186 11.545s4.39 7.792 13.186 11.545c10.155 4.334 24.206 6.87 39.291 6.87 15.084 0 29.136-2.536 39.29-6.87 8.796-3.753 13.187-8.183 13.187-11.545s-4.391-7.792-13.187-11.545c-5.767-2.248-2.381-1.042-10.239-3.386v1.25c.001 7.666-6.214 13.881-13.88 13.881h-29.285c-7.666 0-13.88-6.215-13.88-13.881l-.001-1.52zm43.166-23.444h-29.285v24.964h29.285v-24.964zM331.471 60.56H61.772v170.555h269.699V60.56z"/><path d="M161.108 187.12v9.326h-7.324q-12.158 0-16.284-3.613-4.126-3.614-4.126-14.405V167.93q0-7.373-2.612-10.18-2.613-2.808-9.449-2.808h-3.027v-9.326h3.027q6.836 0 9.449-2.783 2.612-2.784 2.612-10.206v-10.498q0-10.791 4.126-14.379 4.126-3.589 16.284-3.589h7.324v9.277h-6.005q-5.079 0-6.788 2.051-1.709 2.051-1.709 9.033v10.205q0 8.057-2.392 11.328-2.393 3.272-8.545 4.199 6.152 1.026 8.545 4.346 2.392 3.32 2.392 11.328v10.01q0 7.031 1.709 9.106 1.709 2.076 6.788 2.076zM213.794 107.237h10.791l-38.379 82.178h-10.791zM238.892 187.12h5.908q5.078 0 6.836-2.1t1.758-9.082v-10.01q0-8.008 2.392-11.328 2.393-3.32 8.496-4.346-6.152-.927-8.52-4.199-2.368-3.271-2.368-11.328v-10.205q0-6.885-1.734-8.984-1.733-2.1-6.86-2.1h-5.908v-9.277h7.324q12.109 0 16.186 3.589 4.077 3.588 4.077 14.379v10.498q0 7.374 2.662 10.181 2.661 2.808 9.546 2.808h3.027v9.326h-3.027q-6.885 0-9.546 2.832-2.662 2.832-2.662 10.156v10.498q0 10.791-4.077 14.405-4.077 3.613-16.186 3.613h-7.324z"/></symbol><symbol id="icon-tools" viewBox="0, 0, 400, 400"><path d="M301.621 289.746h15.454l1.336.833 39.076 24.365 7.007 4.37-6.733 4.781-39.075 27.752-1.431 1.016H30.111l12.982-9.877 28.023-21.32-28.093-22.097-12.488-9.823h65.344c.254-5.629-.12-3.143.825-7.495 1.435-5.29 4.467-10.487 7.795-14.258 20.698-20.759 41.719-41.192 62.716-61.647l-.228-.425c-1.693-3.715-1.951-7.978-.449-11.82l-2.491-2.491-7.545-7.545-21.568-21.568c-5.395-5.395-18.459-5.76-22.645-1.574a6.53 6.53 0 0 0-1.446 2.12c-.667 1.597-.666 3.484-.212 5.285.108.431.199.697.218.742l1.428 3.405-2.805 2.804-8.379 8.38-2.284 2.283-7.502 7.503-3.159 3.159-3.74-2.445c-.242-.158-.673-.446-1.268-.849-.979-.665-2.067-1.42-3.237-2.253-3.345-2.382-6.693-4.92-9.833-7.522-2.887-2.391-5.463-4.724-7.652-6.974a57.774 57.774 0 0 1-.777-.812c-.63-.671-1.267-1.358-1.909-2.06-3.29-3.598-6.593-7.439-9.754-11.278a297.817 297.817 0 0 1-3.841-4.762l-.303-.385-2.861-3.679 3.159-3.427 2.91-3.155 5.786-6.275 7.016-7.609 2.909-3.155 2.946-3.194 3.789 2.125c.226.127.827.407 1.689.706 2.527.877 5.073 1.093 7.221.363 1.12-.38 2.154-1.02 3.131-1.997 2.807-2.807 3.049-5.255 1.956-7.792a6.004 6.004 0 0 0-.404-.803l-2.729-3.721 3.19-3.334c.294-.307.833-.857 1.593-1.617a207.612 207.612 0 0 1 4.269-4.139c4.527-4.273 9.405-8.546 14.462-12.546 6.183-4.888 12.215-9.032 17.978-12.202 2.531-1.391 4.993-2.584 7.384-3.565 7.255-2.977 17.037-4.32 28.84-4.428 8.565-.078 17.69.502 26.773 1.514 2.979.332 5.739.688 8.215 1.045a181.21 181.21 0 0 1 3.168.485l-.004.024.508.082c.9.278.9.278 2.105 1.09 1.228 1.261 1.228 1.261 1.851 3.05.166 1.661.166 1.661-.107 2.76-.308.833-.308.833-.598 1.323-.484.682-.484.682-.781.983l-2.006 2.006-1.083-.182c-1.338.662-2.669 1.341-3.999 2.019a581.43 581.43 0 0 0-13.247 6.997c-12.016 6.554-20.925 12.062-23.726 14.863-5.726 5.725-6.249 20.593-.787 26.054l16.522 16.522 16.448 16.448c2.999-.533 1.469-.312 4.591-.655 2.343-.159 4.727-.093 6.957.741.615.23 1.15.634 1.724.951 8.068-7.877 16.165-15.721 24.34-23.485.324-.3.635-.603.934-.91 2.499-2.559 4.114-5.246 5.043-7.891.431-1.399.294-.832.481-1.683-1.726-6.024-2.23-12.323-2.205-18.562.472-18.026 9.067-31.738 26.498-37.548 8.043-2.882 16.459-4.026 24.935-4.536l4.439.002c10.284 1.017 5.907.35 13.179 1.655 4.501.991 8.492 2.342 11.847 3.864a35.813 35.813 0 0 1 3.171 1.615c.393.229.735.444 1.016.644.363.257.62.462.978.851.325.351.325.351.915 1.348.367.807.367.807.546 2.431-.306 2.241-.306 2.241-1.996 4.201-.68.409-.389.24-.87.514l.024.044-5.766 3.224-11.467 6.411-13.906 7.774-4.102 2.294c-.169.44-.024.058-.39 1.161-1.266 4.13-1.505 8.395-.172 12.172a14.288 14.288 0 0 0 1.643 3.256c1.773 2.625 4.167 5.053 7.038 7.255 2.469 1.893 5.142 3.51 7.814 4.837l1.324.633 3.874-1.922 13.486-6.693 13.486-6.693 6.13-3.042c3.568-1.772 7.778.721 7.94 4.702l.007.23c.018.843-.009 1.971-.112 3.343a52.866 52.866 0 0 1-.9 6.475c-1.267 6.3-3.62 12.561-7.333 18.431-5.027 7.946-12.187 14.566-21.703 19.373-14.52 7.335-29.282 8.547-42.646 4.209l-.61-.214-.779.126c-1.951.358-3.894.953-5.655 1.817-1.478.725-2.758 1.608-3.803 2.653-14.583 14.452-7.988 7.942-19.769 19.542l13.915 12.843.059.054c32.766 30.239 47.525 43.901 49.489 45.865 3.066 3.065 4.98 5.437 6.127 8.025 1.83 4.126 1.253 8.394-2.051 11.697l-5.414 5.414zm-202.008 11H62.312l21.193 16.669 5.588 4.396-5.658 4.305-20.699 15.747h251.011l30.912-21.954-30.732-19.163h-23.306l-6.666 6.666c-3.885 3.885-8.803 4.588-13.548 2.789-2.872-1.089-5.392-2.936-7.485-5.029-1.45-1.471-2.893-2.949-4.337-4.426H142.407c-2.751 2.671-.9.916-5.675 5.134-3.973 3.137-9.962 5.167-15.972 5.251-7.258.103-14.096-2.542-19.343-8.127-1.292-1.466-.692-.712-1.804-2.258zm74.934-85.98c-20.305 20.483-41.901 39.612-61.8 60.504-5.82 6.596-8.123 15.082-3.312 20.203 3.036 3.232 6.884 4.72 11.17 4.659 3.643-.051 7.283-1.285 9.311-2.885 21.697-20.521 42.98-41.473 64.306-62.378-6.556-6.703-13.108-13.411-19.675-20.103zm20.899-33.572l-.758.027c-1.704.191-1.08.085-1.887.229L176.81 198.1c-.518 1.271-.249 1.976.092 3.056.202.421.508.85.954 1.296 2.569 2.568 18.171 18.517 46.318 47.329l.041.042 31.388 32.132c9.801 10.033 14.634 14.976 15.097 15.438 2.435 2.436 4.499 3.218 5.477 2.241l22.748-22.748c-.956-1.711-2.382-3.111-3.744-4.498-1.789-1.789-17.081-15.944-49.172-45.56l-.058-.054c-16.255-15.336-33.055-30.098-49.233-45.516-.849-.074-.424-.053-1.272-.064zm6.462 61.539c-31.023 30.333-14.951 14.66-48.225 47.013h94.153l-.102-.104-31.387-32.132-.042-.043c-4.798-4.912-9.597-9.823-14.397-14.734zm36.275-90.357c-1.53 1.941-.717.987-2.447 2.854-.425.435-.864.864-1.318 1.286-17.272 16.579-9.397 8.971-23.649 22.802 6.872 6.358 13.752 12.708 20.632 19.059 11.984-11.797 5.285-5.186 20.086-19.849 2.477-2.265.959-.996 4.701-3.625-5.853-3.929-10.527-9.334-14.268-15.251-1.387-2.347-2.687-4.757-3.737-7.276zm-84.148-1.202l-7.434 7.434 26.977 26.977 7.284-7.584-15.769-15.768-11.058-11.059zm6.133-66.355c-10.525.097-19.073 1.271-24.765 3.606-1.986.815-4.077 1.828-6.258 3.027-5.169 2.842-10.717 6.654-16.456 11.192-4.785 3.784-9.427 7.85-13.735 11.916-2.38 2.277-1.44 1.358-2.842 2.739 2.626 6.84-.127 13.452-4.805 18.446-2.176 2.176-4.664 3.715-7.372 4.635-4.484 1.512-9.199 1.224-13.667-.17l-.337.366-5.786 6.274-6.721 7.289 1.046 1.28c3.049 3.703 6.231 7.404 9.379 10.846.61.667 1.213 1.318 1.809 1.953.209.221.423.446.643.672 1.888 1.94 4.18 4.016 6.785 6.173 2.914 2.414 6.055 4.796 9.197 7.033l.479.337 12.883-12.883c-.724-3.687-.227-7.258 1.048-10.747a17.53 17.53 0 0 1 3.818-5.658c8.84-8.032 23.893-7.802 33.712-1.715l8.256-8.257c-7.889-10.947-6.243-29.332 2.88-39.073 3.865-3.865 13.123-9.588 26.236-16.741l3.244-1.754c-14.56-.845-8.333-.686-18.671-.785v-.001zm124.871 3.482c-8.174-.101-16.126 1.542-23.877 3.995-12.682 4.227-18.622 13.704-18.981 27.401-.118 4.525.435 9.023 1.314 13.458.27 1.364.733 2.683 1.1 4.024l.017.001-.004.048c1.291 5.931 3.742 11.518 6.744 16.765 4.795 7.99 12.781 14.425 22.156 17.468 10.584 3.436 22.344 2.47 34.29-3.565 7.71-3.894 13.385-9.141 17.367-15.435 2.534-3.951 4.277-8.338 5.395-12.887l-10.427 5.175-13.485 6.693-6.13 3.042a5.5 5.5 0 0 1-4.316.246c-.282-.103-.739-.28-1.347-.535a55.196 55.196 0 0 1-3.19-1.465c-3.269-1.624-6.537-3.601-9.614-5.96-3.755-2.88-6.969-6.141-9.459-9.826a25.28 25.28 0 0 1-2.901-5.752c-2.234-6.331-1.868-12.875.028-19.059.337-1.099.701-2.1 1.069-2.992.235-.568.432-.998.57-1.274a5.502 5.502 0 0 1 2.236-2.341l5.766-3.224 12.687-7.093 8.586-4.8c-.936-.307-.035-.013-2.762-.684-7.001-1.285-2.744-.654-12.832-1.424zm28.798-4.065l1.086.24c-.309-.102-.309-.102-.988-.229l-.098-.011zm-.731-.029l-.493.023c-.77.124-.469.03-.925.198l2.096-.198c-.319-.035-.094-.015-.678-.022v-.001z"/><path d="M125.034 288.37a4.542 4.542 0 1 1-6.424-6.424 4.542 4.542 0 0 1 6.424 6.424z"/></symbol></svg>